<svg width="181" height="334" viewBox="0 0 181 334" fill="none" xmlns="http://www.w3.org/2000/svg">
<path fill-rule="evenodd" clip-rule="evenodd" d="M149.042 176.483C166.619 147.721 181 124.188 181 91C181 41.0182 140.482 0.5 90.5 0.5C40.5182 0.5 0 41.0182 0 91C0 124.037 14.4504 147.507 32.0502 176.092C53.8722 211.535 80.5361 254.842 90.5 334C100.979 255.133 127.427 211.854 149.042 176.483ZM90.5 125C108.449 125 123 110.449 123 92.5C123 74.5507 108.449 60 90.5 60C72.5507 60 58 74.5507 58 92.5C58 110.449 72.5507 125 90.5 125Z" fill="#9F1D1D"/>
</svg>
